<svg width="40" height="40" viewBox="0 0 40 40" fill="none" xmlns="http://www.w3.org/2000/svg">
<path d="M16.023 9.47353C15.7472 9.47353 15.4715 9.37862 15.2325 9.18205C14.6473 8.6974 14.5248 7.78231 14.9629 7.13497L16.6173 4.67781L15.4531 2.12236C15.1252 1.40047 15.3857 0.519271 16.0382 0.156627C16.6908 -0.206016 17.4874 0.0820655 17.8152 0.803964L19.3471 4.16943C19.5739 4.66425 19.5248 5.25737 19.2276 5.70474L17.083 8.8872C16.8226 9.27356 16.4243 9.47691 16.0198 9.47691L16.023 9.47353Z" fill="#7E7E7E"/>
<path d="M9.55518 9.47353C9.27944 9.47353 9.0037 9.37862 8.76473 9.18205C8.17954 8.6974 8.057 7.78231 8.49511 7.13497L10.1496 4.67781L8.98532 2.12236C8.6575 1.40047 8.91792 0.519271 9.5705 0.156627C10.2231 -0.206016 11.0197 0.0820655 11.3475 0.803964L12.8794 4.16943C13.106 4.66425 13.057 5.25737 12.7599 5.70474L10.6152 8.8872C10.3548 9.27356 9.95654 9.47691 9.55211 9.47691L9.55518 9.47353Z" fill="#7E7E7E"/>
<path d="M16.023 9.47353C15.7472 9.47353 15.4715 9.37862 15.2325 9.18205C14.6473 8.6974 14.5248 7.78231 14.9629 7.13497L16.6173 4.67781L15.4531 2.12236C15.1252 1.40047 15.3857 0.519271 16.0382 0.156627C16.6908 -0.206016 17.4874 0.0820655 17.8152 0.803964L19.3471 4.16943C19.5739 4.66425 19.5248 5.25737 19.2276 5.70474L17.083 8.8872C16.8226 9.27356 16.4243 9.47691 16.0198 9.47691L16.023 9.47353Z" fill="#7E7E7E"/>
<path d="M9.55518 9.47353C9.27944 9.47353 9.0037 9.37862 8.76473 9.18205C8.17954 8.6974 8.057 7.78231 8.49511 7.13497L10.1496 4.67781L8.98532 2.12236C8.6575 1.40047 8.91792 0.519271 9.5705 0.156627C10.2231 -0.206016 11.0197 0.0820655 11.3475 0.803964L12.8794 4.16943C13.106 4.66425 13.057 5.25737 12.7599 5.70474L10.6152 8.8872C10.3548 9.27356 9.95654 9.47691 9.55211 9.47691L9.55518 9.47353Z" fill="#7E7E7E"/>
<path d="M21.4456 40H9.19055C8.64214 40 8.13662 39.678 7.86394 39.1528L0.204507 24.4775C-0.068169 23.9522 -0.068169 23.3083 0.204507 22.7829L7.86394 8.10769C8.13662 7.58237 8.64214 7.26039 9.19055 7.26039H21.4456C21.9941 7.26039 22.4996 7.58237 22.7722 8.10769L30.4317 22.7829C30.7044 23.3083 30.7044 23.9522 30.4317 24.4775L22.7722 39.1528C22.4996 39.678 21.9941 40 21.4456 40ZM10.076 36.6108H20.5633L27.3373 23.6302L20.5633 10.6496H10.076L3.30198 23.6302L10.076 36.6108Z" fill="#7E7E7E"/>
<path d="M32.2056 40H19.9506C19.4022 40 18.8966 39.678 18.624 39.1528L10.9645 24.4775C10.6918 23.9522 10.6918 23.3083 10.9645 22.7829L18.624 8.10769C18.8966 7.58237 19.4022 7.26039 19.9506 7.26039H32.2056C32.7541 7.26039 33.2596 7.58237 33.5322 8.10769L38.5507 17.7229C38.9735 18.5329 38.7223 19.5699 37.99 20.0376C37.2578 20.5053 36.3203 20.2274 35.8975 19.4175L31.3202 10.6496H20.833L14.059 23.6302L20.833 36.6108H31.3202L36.3387 26.9991C36.7615 26.1891 37.699 25.9111 38.4313 26.3788C39.1635 26.8465 39.4147 27.8837 38.9919 28.6937L33.5322 39.1528C33.2596 39.678 32.7541 40 32.2056 40Z" fill="#7E7E7E"/>
<path d="M38.275 24.9317C39.2276 24.9317 39.9999 24.0774 39.9999 23.0235C39.9999 21.9697 39.2276 21.1155 38.275 21.1155C37.3223 21.1155 36.55 21.9697 36.55 23.0235C36.55 24.0774 37.3223 24.9317 38.275 24.9317Z" fill="#7E7E7E"/>
<path d="M21.4457 40H9.19059C8.34498 40 7.65869 39.2408 7.65869 38.3054C7.65869 37.37 8.34498 36.6108 9.19059 36.6108H20.5603L27.3343 23.6302L20.5603 10.6496H9.19059C8.34498 10.6496 7.65869 9.8904 7.65869 8.95499C7.65869 8.01957 8.34498 7.26039 9.19059 7.26039H21.4457C21.9941 7.26039 22.4997 7.58237 22.7723 8.10769L30.4317 22.7829C30.7043 23.3083 30.7043 23.9522 30.4317 24.4775L22.7723 39.1528C22.4997 39.678 21.9941 40 21.4457 40Z" fill="#7E7E7E"/>
<path d="M32.2056 40H19.9506C19.4022 40 18.8966 39.678 18.624 39.1528L10.9645 24.4775C10.6918 23.9522 10.6918 23.3083 10.9645 22.7829L18.624 8.10769C18.8966 7.58237 19.4022 7.26039 19.9506 7.26039H32.2056C33.0513 7.26039 33.7376 8.01957 33.7376 8.95499C33.7376 9.8904 33.0513 10.6496 32.2056 10.6496H20.836L14.062 23.6302L20.836 36.6108H32.2056C33.0513 36.6108 33.7376 37.37 33.7376 38.3054C33.7376 39.2408 33.0513 40 32.2056 40Z" fill="#7E7E7E"/>
</svg>
