<svg width="42" height="42" viewBox="0 0 42 42" fill="none" xmlns="http://www.w3.org/2000/svg">
<path d="M8.5 11C9.88 11 11 12.4933 11 14.3333V37.6667C11 39.5067 9.88 41 8.5 41H3.5C2.12167 41 1 39.5067 1 37.6667V14.3333C1 12.4933 2.12167 11 3.5 11H8.5ZM23.5 1C24.88 1 26 2.49333 26 4.33333V37.6667C26 39.5067 24.88 41 23.5 41H18.5C17.1217 41 16 39.5067 16 37.6667V4.33333C16 2.49333 17.1217 1 18.5 1H23.5ZM38.5 17.6667C39.88 17.6667 41 19.16 41 21V37.6667C41 39.5067 39.88 41 38.5 41H33.5C32.12 41 31 39.5067 31 37.6667V21C31 19.16 32.12 17.6667 33.5 17.6667H38.5Z" stroke="#7E7E7E" stroke-width="2"/>
</svg>
