<svg width="40" height="40" viewBox="0 0 40 40" fill="none" xmlns="http://www.w3.org/2000/svg">
<path d="M5 7.14286C5 5.24845 5.65848 3.43164 6.83058 2.09209C8.00269 0.752549 9.5924 0 11.25 0H33.75C35.4076 0 36.9973 0.752549 38.1694 2.09209C39.3415 3.43164 40 5.24845 40 7.14286V27.1429C40 29.0373 39.3415 30.8541 38.1694 32.1936C36.9973 33.5332 35.4076 34.2857 33.75 34.2857H11.25C9.5924 34.2857 8.00269 33.5332 6.83058 32.1936C5.65848 30.8541 5 29.0373 5 27.1429V7.14286ZM21.865 19.8029L7.5 11.3171V27.1429C7.5 28.2795 7.89509 29.3696 8.59835 30.1733C9.30161 30.977 10.2554 31.4286 11.25 31.4286H33.75C34.7446 31.4286 35.6984 30.977 36.4016 30.1733C37.1049 29.3696 37.5 28.2795 37.5 27.1429V11.3229L23.135 19.8029L22.93 19.9114C22.7565 19.9845 22.571 20.0126 22.3868 19.9939C22.2027 19.9751 22.0244 19.9098 21.865 19.8029V19.8029ZM33.75 2.85714H11.25C10.2554 2.85714 9.30161 3.30867 8.59835 4.1124C7.89509 4.91613 7.5 6.00622 7.5 7.14286V8.00286L22.5 16.9143L37.5 8.00571V7.14286C37.5 6.00622 37.1049 4.91613 36.4016 4.1124C35.6984 3.30867 34.7446 2.85714 33.75 2.85714V2.85714ZM28.75 40C30.795 40 32.61 38.8771 33.75 37.1429H11.25C8.92936 37.1429 6.70376 36.0893 5.06282 34.2139C3.42187 32.3386 2.5 29.795 2.5 27.1429V7.14286C0.9825 8.44571 0 10.52 0 12.8571V27.1429C0 30.5528 1.18526 33.823 3.29505 36.2342C5.40483 38.6454 8.26631 40 11.25 40H28.75Z" fill="#7E7E7E"/>
</svg>
