<svg width="40" height="40" viewBox="0 0 40 40" fill="none" xmlns="http://www.w3.org/2000/svg">
<path d="M22.725 3.14439C22.8738 3.14439 22.9593 3.15064 22.9593 3.15064H26.2237L26.2069 6.90064H22.9644C21.18 6.90064 21.2213 8.42435 21.2213 8.42435V14.3694H27.535L26.6538 18.1143H21.2006V36.8556H17.4544L17.4519 18.1143H12.475L12.465 14.3694H17.4538V8.54185C17.4543 3.4606 21.6744 3.14435 22.725 3.14435V3.14439ZM26.2237 3.1506H26.23H26.2237ZM22.725 0.644348C21.8263 0.644348 20.0699 0.793137 18.4062 1.79564C16.8312 2.74314 14.9543 4.68372 14.9543 8.54126V11.8687H12.4656C11.8012 11.8687 11.1643 12.1337 10.6943 12.6038C10.4621 12.8369 10.2782 13.1136 10.1531 13.418C10.0281 13.7224 9.96435 14.0484 9.96559 14.3775L9.97559 18.1225C9.98059 19.4994 11.0987 20.6138 12.4756 20.6138H14.9525L14.955 36.855C14.955 38.2356 16.0744 39.355 17.455 39.355H21.2013C22.5818 39.355 23.7013 38.2356 23.7013 36.855V20.6138H26.6544C27.7638 20.6138 28.7406 19.8825 29.0531 18.8182L29.9343 15.0731C30.1562 14.3176 30.0087 13.5007 29.5362 12.8713C29.3037 12.56 29.0018 12.3073 28.6545 12.1333C28.3072 11.9593 27.924 11.8687 27.5356 11.8688H23.7218V9.40189L26.2074 9.40064C27.5831 9.40064 28.7012 8.28876 28.7074 6.91189L28.7243 3.28876C28.7268 3.24276 28.7281 3.1967 28.7281 3.15064C28.7281 1.77001 27.6112 0.650637 26.2306 0.650637H23.03C22.9581 0.646887 22.8543 0.644387 22.725 0.644348V0.644348Z" fill="#7E7E7E"/>
</svg>
