<svg width="40" height="40" viewBox="0 0 40 40" fill="none" xmlns="http://www.w3.org/2000/svg">
<path d="M37.6292 21.0541C37.4665 21.0542 37.3056 21.0157 37.1569 20.9411L27.2523 15.9272C27.0492 15.824 26.8768 15.6566 26.7559 15.4453C26.6349 15.2339 26.5706 14.9876 26.5706 14.7359C26.5706 14.4841 26.6349 14.2378 26.7559 14.0264C26.8768 13.8151 27.0492 13.6477 27.2523 13.5446L37.1569 8.54803C37.4365 8.40773 37.7539 8.39831 38.0396 8.52183C38.3253 8.64535 38.5561 8.89177 38.6815 9.20716C38.8056 9.52343 38.8137 9.88237 38.7041 10.2054C38.5945 10.5284 38.3762 10.7892 38.0969 10.9306L30.5508 14.7376L38.0985 18.5585C38.3398 18.6801 38.5369 18.8917 38.6568 19.1579C38.7767 19.4241 38.8122 19.7288 38.7572 20.0209C38.7023 20.3131 38.5603 20.5752 38.355 20.7632C38.1497 20.9513 37.8935 21.054 37.6292 21.0541Z" fill="#7E7E7E"/>
<path d="M24.1323 39.2436C13.243 39.2436 3.72303 30.934 0.986108 19.0349C0.908991 18.7003 0.952628 18.3447 1.10742 18.0464C1.26221 17.7482 1.51547 17.5316 1.81149 17.4445C2.10752 17.3573 2.42205 17.4066 2.6859 17.5816C2.94975 17.7566 3.1413 18.0429 3.21842 18.3775C4.42578 23.6079 7.13393 28.2377 10.9186 31.5416C14.7032 34.8455 19.3505 36.6368 24.1323 36.6349C24.4383 36.6349 24.7318 36.7723 24.9482 37.0169C25.1645 37.2615 25.2861 37.5933 25.2861 37.9392C25.2861 38.2852 25.1645 38.6169 24.9482 38.8616C24.7318 39.1062 24.4383 39.2436 24.1323 39.2436Z" fill="#7E7E7E"/>
<path d="M20.1569 28.4105C19.8509 28.4105 19.5574 28.2731 19.341 28.0285C19.1246 27.7839 19.0031 27.4521 19.0031 27.1062V2.31314C19.0031 1.9672 19.1246 1.63544 19.341 1.39082C19.5574 1.14621 19.8509 1.00879 20.1569 1.00879C20.4629 1.00879 20.7564 1.14621 20.9728 1.39082C21.1892 1.63544 21.3107 1.9672 21.3107 2.31314V27.1079C21.3103 27.4536 21.1886 27.7849 20.9722 28.0291C20.7559 28.2733 20.4627 28.4105 20.1569 28.4105Z" fill="#7E7E7E"/>
</svg>
