<svg width="40" height="40" viewBox="0 0 40 40" fill="none" xmlns="http://www.w3.org/2000/svg">
<g clip-path="url(#clip0_257_47)">
<path d="M35.6888 11.1111H4.31106C3.75705 11.1111 3.22573 11.3312 2.83399 11.7229C2.44225 12.1147 2.22217 12.646 2.22217 13.2V33.4667C2.22217 34.0207 2.44225 34.552 2.83399 34.9437C3.22573 35.3355 3.75705 35.5556 4.31106 35.5556H35.6888C36.2428 35.5556 36.7742 35.3355 37.1659 34.9437C37.5576 34.552 37.7777 34.0207 37.7777 33.4667V13.2C37.7777 12.646 37.5576 12.1147 37.1659 11.7229C36.7742 11.3312 36.2428 11.1111 35.6888 11.1111V11.1111ZM35.5555 33.3333H4.44439V13.3333H35.5555V33.3333Z" fill="#7E7E7E"/>
<path d="M9.51107 21.6111C10.1703 21.6111 10.8148 21.4156 11.363 21.0493C11.9111 20.6831 12.3384 20.1625 12.5907 19.5534C12.843 18.9443 12.909 18.2741 12.7804 17.6275C12.6517 16.9809 12.3343 16.3869 11.8681 15.9207C11.4019 15.4546 10.808 15.1371 10.1614 15.0085C9.51477 14.8799 8.84454 14.9459 8.23546 15.1982C7.62637 15.4505 7.10577 15.8777 6.7395 16.4259C6.37323 16.974 6.17773 17.6185 6.17773 18.2778C6.17773 19.1618 6.52892 20.0097 7.15405 20.6348C7.77917 21.2599 8.62701 21.6111 9.51107 21.6111V21.6111ZM9.51107 16.5C9.86444 16.4911 10.2124 16.5879 10.5106 16.7777C10.8087 16.9676 11.0435 17.2421 11.1849 17.5661C11.3263 17.89 11.3679 18.2488 11.3044 18.5965C11.2409 18.9443 11.0752 19.2652 10.8284 19.5183C10.5816 19.7714 10.265 19.9452 9.91901 20.0174C9.573 20.0897 9.2133 20.0572 8.88585 19.924C8.55841 19.7909 8.27809 19.5631 8.08071 19.2699C7.88333 18.9767 7.77784 18.6312 7.77773 18.2778C7.77759 17.8139 7.95878 17.3683 8.28262 17.0361C8.60647 16.704 9.04732 16.5116 9.51107 16.5V16.5Z" fill="#7E7E7E"/>
<path d="M8.77788 31.1111L15.4445 24.4445L18.9779 27.9778L15.8445 31.1111H18.0668L26.3557 22.8222L33.3334 29.7445V27.5222L26.889 21.1111C26.7412 20.9646 26.5416 20.8823 26.3334 20.8823C26.1253 20.8823 25.9256 20.9646 25.7779 21.1111L20.0445 26.8445L15.9668 22.7778C15.819 22.6312 15.6193 22.549 15.4112 22.549C15.2031 22.549 15.0034 22.6312 14.8557 22.7778L6.57788 31.1111H8.77788Z" fill="#7E7E7E"/>
<path d="M33.4889 3.33334C33.4889 3.03866 33.3719 2.75604 33.1635 2.54767C32.9551 2.33929 32.6725 2.22223 32.3778 2.22223H7.93338C7.63869 2.22223 7.35608 2.33929 7.1477 2.54767C6.93933 2.75604 6.82227 3.03866 6.82227 3.33334V4.44445H33.4889V3.33334Z" fill="#7E7E7E"/>
<path d="M35.689 7.77777C35.689 7.48308 35.5719 7.20047 35.3636 6.99209C35.1552 6.78372 34.8726 6.66666 34.5779 6.66666H5.68899C5.39431 6.66666 5.11169 6.78372 4.90332 6.99209C4.69494 7.20047 4.57788 7.48308 4.57788 7.77777V8.88888H35.689V7.77777Z" fill="#7E7E7E"/>
</g>
<defs>
<clipPath id="clip0_257_47">
<rect width="40" height="40" fill="white"/>
</clipPath>
</defs>
</svg>
