<svg width="40" height="40" viewBox="0 0 40 40" fill="none" xmlns="http://www.w3.org/2000/svg">
<path d="M20 6.66667C22.7805 6.66667 24.3537 7.33318 25 7.5C25.8758 6.79105 28.2292 5 30.8333 5C31.4063 6.66667 31.3105 8.69868 30.8333 10C32.0833 11.6667 32.5 13.3333 32.5 15.8333C32.5 19.4792 31.695 21.8037 30 23.3333C28.305 24.863 26.4812 25.6248 24.1667 25.8333C25.251 26.73 25 28.9572 25 30C25 31.2093 25 35 25 35M20 6.66667C17.2195 6.66667 15.6464 7.33318 15 7.5C14.1242 6.79105 11.7708 5 9.16667 5C8.59375 6.66667 8.68952 8.69868 9.16667 10C7.91667 11.6667 7.5 13.3333 7.5 15.8333C7.5 19.4792 8.30502 21.8037 10 23.3333C11.695 24.863 13.5188 25.6248 15.8333 25.8333C14.7491 26.73 15 28.9572 15 30C15 31.2093 15 35 15 35" stroke="#7E7E7E" stroke-width="3" stroke-linecap="round" stroke-linejoin="round"/>
<path d="M15 31.6667C12.6562 31.6667 10.2604 30.7292 8.85417 29.6875C7.44792 28.6458 7.03125 26.927 5 25.8333" stroke="#7E7E7E" stroke-width="2" stroke-linecap="round" stroke-linejoin="round"/>
</svg>
