<svg width="40" height="40" viewBox="0 0 40 40" fill="none" xmlns="http://www.w3.org/2000/svg">
<path d="M33.7629 38.5H23.6187V29.5324V28.0324H22.1187H17.177H15.677V29.5324V38.5H6.23878V24.7799V23.2799H4.73878H2.82385C2.17473 23.2799 1.5 22.6926 1.5 21.7892C1.5 21.3683 1.65992 20.9779 1.91979 20.7025C1.91991 20.7023 1.92004 20.7022 1.92016 20.7021L20.0008 1.56678L38.0815 20.7021C38.0816 20.7022 38.0817 20.7023 38.0819 20.7025C38.639 21.293 38.6391 22.2834 38.0838 22.8738L38.0816 22.8761C37.8297 23.1452 37.5041 23.2799 37.1778 23.2799H35.2629H33.7629V24.7799V38.5ZM19.9063 1.46679L19.9064 1.46687L19.9063 1.46679Z" stroke="#7E7E7E" stroke-width="3"/>
</svg>
