<svg width="40" height="40" viewBox="0 0 40 40" fill="none" xmlns="http://www.w3.org/2000/svg">
<g clip-path="url(#clip0_5_8)">
<path d="M20 1.25C13.1081 1.25 7.5 6.18063 7.5 12.2413C7.5 15.4475 9.605 18.7488 11.6381 21.9388C13.39 24.6844 15.0631 27.305 15.5856 30H24.4137C24.9375 27.3044 26.6088 24.6838 28.36 21.9388C30.3944 18.7488 32.5 15.4475 32.5 12.2413C32.5 6.18063 26.8919 1.25 20 1.25ZM20 18.5462C21.2075 19.8494 22.345 20.2369 22.865 20.3519C22.7869 20.6988 22.7162 21.0375 22.6344 21.3713C22.4806 22.0538 22.3306 22.7188 22.185 23.3575C21.7792 25.1528 21.3844 26.9505 21.0006 28.7506H18.9988C18.614 26.9507 18.2192 25.153 17.8144 23.3575L17.3637 21.3713C17.2819 21.0375 17.2113 20.6988 17.1344 20.3519C17.655 20.2369 18.7925 19.8494 20 18.5462V18.5462ZM19.6631 17.1819C19.5438 16.9237 19.5006 16.66 19.6231 16.4656C19.7256 16.3112 19.8612 16.2231 20.0006 16.2231C20.14 16.2231 20.2744 16.3112 20.3781 16.4656C20.5 16.66 20.4575 16.9231 20.3381 17.1819C20.25 17.3644 20.1294 17.5381 20 17.7062C19.8693 17.544 19.7563 17.3682 19.6631 17.1819V17.1819ZM27.3069 21.2656C25.6925 23.7962 24.1575 26.2019 23.43 28.75H21.4013C21.851 26.9889 22.2913 25.2253 22.7219 23.4594C22.8756 22.8213 23.0381 22.1606 23.2037 21.4794C23.2962 21.1169 23.3781 20.7431 23.4688 20.3713C23.9412 20.3394 24.3931 20.1919 24.7456 19.8688C25.1069 19.5131 25.295 19.0481 25.2106 18.5519C25.1725 18.3144 24.9944 18.0069 24.6506 17.9019C24.4825 17.8452 24.3011 17.841 24.1306 17.89C23.9886 17.9426 23.8607 18.0273 23.7569 18.1375C23.4238 18.5075 23.3025 18.8769 23.1663 19.2431C23.1025 19.4275 23.05 19.6119 23 19.7938C23 19.7938 22.4688 19.8344 21.3325 19.07C20.7013 18.6456 20.5194 18.3388 20.3362 18.1356C20.5337 17.9163 20.7231 17.6756 20.87 17.3837C20.9481 17.2206 21.0138 17.0437 21.0363 16.845C21.0588 16.6462 21.0219 16.4213 20.9081 16.2275C20.7867 16.0127 20.5962 15.8453 20.3675 15.7525C20.2538 15.7119 20.1269 15.6925 20 15.6925C19.8731 15.6925 19.745 15.7113 19.6325 15.7525C19.4036 15.8454 19.2127 16.0128 19.0906 16.2275C18.9769 16.4219 18.9406 16.6462 18.9625 16.845C18.9877 17.0327 19.0443 17.2148 19.13 17.3837C19.2763 17.6756 19.4656 17.9169 19.6637 18.1356C19.4806 18.3388 19.2975 18.6456 18.6662 19.07C17.53 19.835 16.9987 19.7938 16.9987 19.7938C16.9497 19.6085 16.8947 19.4248 16.8337 19.2431C16.6956 18.8769 16.5762 18.5075 16.2431 18.1375C16.1394 18.0272 16.0114 17.9425 15.8694 17.89C15.6989 17.841 15.5175 17.8452 15.3494 17.9019C15.0037 18.0069 14.8269 18.3144 14.7894 18.5519C14.7038 19.0481 14.8931 19.5131 15.2544 19.8688C15.6081 20.1919 16.0588 20.3394 16.5312 20.3713C16.6206 20.7438 16.7019 21.1169 16.7963 21.4794L17.2781 23.4594C17.7091 25.2252 18.1493 26.9888 18.5987 28.75H16.57C15.8437 26.2044 14.3081 23.7987 12.6894 21.2631C10.7525 18.2237 8.75 15.0813 8.75 12.2413C8.75 6.87 13.7963 2.5 20 2.5C26.2031 2.5 31.25 6.87 31.25 12.2413C31.25 15.0825 29.2456 18.2256 27.3069 21.2656V21.2656ZM23.6244 19.79C23.6612 19.6619 23.6988 19.5319 23.7425 19.4069C23.8606 19.0775 24.0112 18.7194 24.2162 18.505C24.265 18.45 24.315 18.4281 24.3406 18.4137C24.3406 18.4162 24.4019 18.4062 24.4406 18.4256C24.51 18.4431 24.5763 18.515 24.6019 18.6531C24.6519 18.9206 24.525 19.265 24.2956 19.4806C24.1344 19.6338 23.8856 19.7412 23.6244 19.79ZM16.3744 19.79C16.1131 19.7412 15.8644 19.6337 15.7044 19.48C15.4738 19.2644 15.3481 18.92 15.3981 18.6525C15.4237 18.5138 15.4894 18.4425 15.5594 18.425C15.5988 18.4062 15.6594 18.4156 15.6594 18.4131C15.6838 18.4275 15.735 18.45 15.7812 18.5044C15.9875 18.7194 16.1375 19.0769 16.2563 19.4062C16.3 19.5319 16.3381 19.6619 16.3744 19.79V19.79ZM16.575 30.9731H15.95V33.2231H16.43V35.2238H16.91V37.2244H17.7137C18.0919 38.1175 18.9669 38.75 20 38.75C21.0325 38.75 21.9069 38.1175 22.2863 37.2231H23.1156V35.21L23.1856 35.1844L23.595 35.0344V33.2075L23.6356 33.1944L24.0738 33.0569V30.9725H16.575V30.9731Z" fill="#7E7E7E" stroke="#7E7E7E"/>
</g>
<defs>
<clipPath id="clip0_5_8">
<rect width="40" height="40" fill="white"/>
</clipPath>
</defs>
</svg>
