<svg width="48" height="48" viewBox="0 0 48 48" fill="none" xmlns="http://www.w3.org/2000/svg">
<path d="M38.74 16.55V17.55C38.74 27.62 31.1 39.16 17.12 39.16C12.9929 39.1689 8.95353 37.9696 5.5 35.71C6.09978 35.7915 6.70477 35.8282 7.31 35.82C10.731 35.8294 14.0558 34.6883 16.75 32.58C15.1607 32.5566 13.6192 32.0328 12.3446 31.0831C11.07 30.1335 10.1271 28.8062 9.65 27.29C10.1234 27.3904 10.6061 27.4406 11.09 27.44C11.7658 27.4402 12.4385 27.3493 13.09 27.17C11.3686 26.8268 9.81992 25.8961 8.709 24.5371C7.59808 23.1781 6.99395 21.4753 7 19.72V19.62C8.0532 20.2083 9.23397 20.531 10.44 20.56C8.8346 19.5036 7.69318 17.874 7.24897 16.0042C6.80476 14.1344 7.09128 12.1656 8.05 10.5C9.96026 12.8495 12.3436 14.7707 15.045 16.1386C17.7465 17.5066 20.7056 18.2907 23.73 18.44C23.5803 17.8724 23.5096 17.2869 23.52 16.7C23.4637 15.1489 23.8868 13.6182 24.7317 12.3162C25.5766 11.0142 26.8023 10.0042 28.2418 9.42383C29.6813 8.84343 31.2647 8.7208 32.7764 9.07263C34.2881 9.42445 35.6547 10.2336 36.69 11.39C38.3918 11.0466 40.0242 10.4213 41.52 9.54001C40.9528 11.3314 39.7461 12.8513 38.13 13.81C39.6396 13.602 41.1114 13.1776 42.5 12.55C41.4936 14.0957 40.2205 15.4501 38.74 16.55V16.55Z" stroke="#7E7E7E" stroke-width="3" stroke-linecap="round" stroke-linejoin="round"/>
</svg>
