<svg width="44" height="44" viewBox="0 0 44 44" fill="none" xmlns="http://www.w3.org/2000/svg">
<path d="M2 7.71429V36.2721" stroke="#7E7E7E" stroke-width="3" stroke-linecap="round"/>
<path d="M42 16.2857V36.2857" stroke="#7E7E7E" stroke-width="3" stroke-linecap="round" stroke-linejoin="round"/>
<path d="M8.66675 2H25.3334" stroke="#7E7E7E" stroke-width="3" stroke-linecap="round" stroke-linejoin="round"/>
<path d="M8.66675 42H35.3334" stroke="#7E7E7E" stroke-width="3" stroke-linecap="round"/>
<path d="M41.9999 36.2857C42.0181 39.1396 38.6666 42 35.3333 42" stroke="#7E7E7E" stroke-width="3" stroke-linecap="round" stroke-linejoin="round"/>
<path d="M2.00009 36.2857C2.00009 39.1428 5.33342 42 8.66675 42" stroke="#7E7E7E" stroke-width="3" stroke-linecap="round" stroke-linejoin="round"/>
<path d="M2.00009 7.71014C2.00009 4.85715 5.33342 2.06363 8.66675 2" stroke="#7E7E7E" stroke-width="3" stroke-linecap="round" stroke-linejoin="round"/>
<path d="M41.9817 16.2985L25.3333 2" stroke="#7E7E7E" stroke-width="3" stroke-linecap="round" stroke-linejoin="round"/>
<path d="M25.3333 10.5714C25.3436 13.413 28.6801 16.2857 32 16.2857" stroke="#7E7E7E" stroke-width="3" stroke-linecap="round" stroke-linejoin="round"/>
<path d="M25.3333 10.5714V2" stroke="#7E7E7E" stroke-width="3" stroke-linecap="round" stroke-linejoin="round"/>
<path d="M32 16.2857H42" stroke="#7E7E7E" stroke-width="3" stroke-linecap="round" stroke-linejoin="round"/>
<path d="M8.66675 36.2857H18.6667" stroke="#7E7E7E" stroke-width="3" stroke-linecap="round" stroke-linejoin="round"/>
<path d="M8.66675 30.5714H25.3334" stroke="#7E7E7E" stroke-width="3" stroke-linecap="round" stroke-linejoin="round"/>
<path d="M8.66675 24.8571H18.6667" stroke="#7E7E7E" stroke-width="3" stroke-linecap="round" stroke-linejoin="round"/>
</svg>
